<svg width="16" height="15" viewBox="0 0 16 15" fill="none" xmlns="http://www.w3.org/2000/svg">
<path d="M3.99949 0.5C4.07817 0.5 4.15686 0.521478 4.2285 0.564528C4.27363 0.591548 4.31597 0.627108 4.35377 0.671208L7.85374 4.75494C8.04902 4.98274 8.04902 5.35209 7.85374 5.5799C7.65847 5.8077 7.3419 5.8077 7.14665 5.5799L4.49781 2.48952V13.9167C4.49781 14.2388 4.27396 14.5 3.99782 14.5C3.72169 14.5 3.49784 14.2388 3.49784 13.9167V2.49478L0.853534 5.57988C0.658278 5.80768 0.341696 5.80768 0.146441 5.57988C-0.0488138 5.35206 -0.0488138 4.98272 0.146441 4.75491L3.61468 0.70853C3.68806 0.606545 3.7908 0.534277 3.90771 0.509449L3.99949 0.5ZM12.0021 0.5C12.2783 0.5 12.5021 0.76117 12.5021 1.08333V12.5052L15.1464 9.4201C15.3417 9.19237 15.6582 9.19237 15.8535 9.4201C16.0488 9.64795 16.0488 10.0173 15.8535 10.245L12.3853 14.2915C12.3119 14.3934 12.2091 14.4657 12.0922 14.4905L12.0004 14.5C11.9218 14.5 11.8431 14.4785 11.7714 14.4355L11.7061 14.3886L11.6362 14.3168L8.14622 10.245C7.95098 10.0173 7.95098 9.64795 8.14622 9.4201C8.34152 9.19225 8.65811 9.19225 8.8533 9.4201L11.5021 12.5105V1.08333C11.5021 0.76117 11.726 0.5 12.0021 0.5Z" fill="#171819"/>
</svg>
