<svg width="26" height="24" viewBox="0 0 26 24" fill="none" xmlns="http://www.w3.org/2000/svg">
<path d="M7.42817 0C3.66313 0 0.565644 2.91264 0.102844 6.64416C0.036463 6.9504 0 7.27008 0 7.6272C0 11.9856 3.2424 15.9178 6.34083 18.8381C9.43083 21.7661 12.5208 23.6947 12.5208 23.6947L12.9995 24L13.4782 23.6947C13.4782 23.6947 16.5692 21.7651 19.6676 18.8371C22.7567 15.9187 26 11.9856 26 7.6272C26 7.27008 25.9635 6.95712 25.9056 6.65952C25.4344 2.91264 22.3434 0 18.5709 0C16.2644 0 14.3561 1.23648 12.9995 2.93472C11.6439 1.23648 9.73562 0 7.42817 0ZM7.42817 1.90656C9.47384 1.90656 11.2297 3.03936 12.202 4.72224L12.9995 6.10848L13.798 4.72224C14.7703 3.03936 16.5252 1.90656 18.5709 1.90656C21.4225 1.90656 23.729 4.0896 24.0703 6.92736L24.0843 7.00224C24.1217 7.1808 24.1432 7.38144 24.1432 7.6272C24.1432 10.9642 21.3496 14.6592 18.4045 17.4384C15.7062 19.992 13.4277 21.4157 13.0005 21.6912C12.5723 21.4157 10.2938 19.992 7.58805 17.4384C4.65044 14.6592 1.85681 10.9651 1.85681 7.6272C1.85681 7.37472 1.87925 7.17312 1.91478 7.00224L1.92973 6.95712V6.91296C2.27754 4.0896 4.57751 1.90656 7.42817 1.90656Z" fill="#171819"/>
<path d="M7.42817 1.90656C9.47384 1.90656 11.2297 3.03936 12.202 4.72224L12.9995 6.10848L13.798 4.72224C14.7703 3.03936 16.5252 1.90656 18.5709 1.90656C21.4225 1.90656 23.729 4.0896 24.0703 6.92736L24.0843 7.00224C24.1217 7.1808 24.1432 7.38144 24.1432 7.6272C24.1432 10.9642 21.3496 14.6592 18.4045 17.4384C15.7062 19.992 13.4277 21.4157 13.0005 21.6912C12.5723 21.4157 10.2938 19.992 7.58805 17.4384C4.65044 14.6592 1.85681 10.9651 1.85681 7.6272C1.85681 7.37472 1.87925 7.17312 1.91478 7.00224L1.92973 6.95712V6.91296C2.27754 4.0896 4.57751 1.90656 7.42817 1.90656Z" fill="#171819"/>
</svg>
