<svg width="24" height="24" viewBox="0 0 24 24" fill="none" xmlns="http://www.w3.org/2000/svg">
<path fill-rule="evenodd" clip-rule="evenodd" d="M0 6.00732H24V19.1666C24 20.4486 23.4597 21.6779 22.4978 22.5844C21.536 23.491 20.2315 24.0002 18.8713 24.0002H5.12884C3.76859 24.0002 2.46405 23.491 1.5022 22.5844C0.540359 21.6779 0 20.4486 0 19.1666V6.00732ZM1.91411 7.81123V19.1666C1.91411 19.9701 2.25281 20.7407 2.85569 21.3089C3.45857 21.8771 4.27624 22.1963 5.12884 22.1963H18.8713C19.7238 22.1963 20.5414 21.8771 21.1443 21.3089C21.7472 20.7407 22.0859 19.9701 22.0859 19.1666V7.81123H1.91411Z" fill="#171819"/>
<path d="M16.1714 9.94461C16.1714 10.1286 16.249 10.3051 16.387 10.4353C16.5251 10.5654 16.7124 10.6384 16.9077 10.6384C17.1029 10.6384 17.2901 10.5654 17.4282 10.4353C17.5663 10.3051 17.6438 10.1286 17.6438 9.94461H16.1714ZM6.35547 9.94461C6.35547 10.1286 6.43303 10.3051 6.5711 10.4353C6.70916 10.5654 6.89642 10.6384 7.09167 10.6384C7.28691 10.6384 7.47417 10.5654 7.61223 10.4353C7.7503 10.3051 7.82786 10.1286 7.82786 9.94461H6.35547ZM7.82786 9.94461V5.31922H6.35547V9.94461H7.82786ZM16.1714 5.31922V9.94461H17.6438V5.31922H16.1714ZM11.9997 1.38762C13.1061 1.38762 14.1672 1.80184 14.9496 2.53916C15.7319 3.27648 16.1714 4.27649 16.1714 5.31922H17.6438C17.6438 3.90848 17.0491 2.55551 15.9906 1.55796C14.9322 0.560417 13.4965 0 11.9997 0V1.38762ZM7.82786 5.31922C7.82786 4.27649 8.26739 3.27648 9.04975 2.53916C9.83211 1.80184 10.8932 1.38762 11.9997 1.38762V0C10.5027 0 9.0671 0.560417 8.00861 1.55796C6.95012 2.55551 6.35547 3.90848 6.35547 5.31922H7.82786Z" fill="#171819"/>
</svg>
