<svg width="15" height="10" viewBox="0 0 15 10" fill="none" xmlns="http://www.w3.org/2000/svg">
<path d="M14.967 4.84423C14.9454 4.79423 14.4166 3.61154 13.2357 2.42051C12.1399 1.31667 10.2572 0 7.5 0C4.74276 0 2.86011 1.31667 1.76434 2.42051C0.583389 3.61154 0.0545689 4.79231 0.0329585 4.84423C0.0112288 4.89346 0 4.94675 0 5.00064C0 5.05453 0.0112288 5.10782 0.0329585 5.15705C0.0545689 5.20641 0.583389 6.3891 1.76434 7.58013C2.86011 8.68398 4.74276 10 7.5 10C10.2572 10 12.1399 8.68398 13.2357 7.58013C14.4166 6.3891 14.9454 5.20833 14.967 5.15705C14.9888 5.10782 15 5.05453 15 5.00064C15 4.94675 14.9888 4.89346 14.967 4.84423ZM7.5 9.23077C5.50548 9.23077 3.76394 8.49872 2.32303 7.05577C1.719 6.45035 1.20787 5.75747 0.806485 5C1.20775 4.24264 1.7189 3.54996 2.32303 2.94487C3.76394 1.50128 5.50548 0.769231 7.5 0.769231C9.49452 0.769231 11.2361 1.50128 12.677 2.94487C13.2811 3.54996 13.7922 4.24264 14.1935 5C13.7886 5.78269 11.7585 9.23077 7.5 9.23077ZM7.5 2.05128C6.92173 2.05128 6.35645 2.22422 5.87564 2.54823C5.39483 2.87224 5.02009 3.33277 4.79879 3.87157C4.5775 4.41038 4.5196 5.00327 4.63242 5.57527C4.74523 6.14726 5.02369 6.67267 5.43259 7.08506C5.84148 7.49744 6.36245 7.77828 6.9296 7.89206C7.49676 8.00584 8.08463 7.94744 8.61888 7.72426C9.15312 7.50108 9.60975 7.12313 9.93102 6.63822C10.2523 6.15331 10.4238 5.5832 10.4238 5C10.4228 4.21826 10.1144 3.46884 9.5663 2.91607C9.01821 2.36329 8.27512 2.0523 7.5 2.05128ZM7.5 7.17949C7.07259 7.17949 6.65477 7.05166 6.29939 6.81218C5.94401 6.57269 5.66702 6.2323 5.50346 5.83405C5.33989 5.4358 5.2971 4.99758 5.38048 4.5748C5.46386 4.15202 5.66968 3.76368 5.97191 3.45887C6.27414 3.15406 6.6592 2.94649 7.0784 2.86239C7.4976 2.7783 7.93212 2.82146 8.327 2.98642C8.72187 3.15138 9.05938 3.43073 9.29684 3.78914C9.5343 4.14756 9.66104 4.56894 9.66104 5C9.66104 5.57804 9.43336 6.1324 9.02809 6.54113C8.62281 6.94986 8.07314 7.17949 7.5 7.17949Z" fill="#171819"/>
</svg>
