<svg width="27" height="24" viewBox="0 0 27 24" fill="none" xmlns="http://www.w3.org/2000/svg">
<path d="M7.4311 0C3.66606 0 0.568574 2.91264 0.105774 6.64416C0.0393927 6.9504 0.00292969 7.27008 0.00292969 7.6272C0.00292969 11.9856 3.24533 15.9178 6.34376 18.8381C9.43376 21.7661 12.5237 23.6947 12.5237 23.6947L13.0024 24L13.4811 23.6947C13.4811 23.6947 16.5721 21.7651 19.6705 18.8371C22.7596 15.9187 26.0029 11.9856 26.0029 7.6272C26.0029 7.27008 25.9664 6.95712 25.9085 6.65952C25.4373 2.91264 22.3463 0 18.5738 0C16.2673 0 14.359 1.23648 13.0024 2.93472C11.6468 1.23648 9.73855 0 7.4311 0ZM7.4311 1.90656C9.47677 1.90656 11.2326 3.03936 12.2049 4.72224L13.0024 6.10848L13.8009 4.72224C14.7732 3.03936 16.5281 1.90656 18.5738 1.90656C21.4254 1.90656 23.7319 4.0896 24.0732 6.92736L24.0872 7.00224C24.1246 7.1808 24.1461 7.38144 24.1461 7.6272C24.1461 10.9642 21.3525 14.6592 18.4074 17.4384C15.7091 19.992 13.4306 21.4157 13.0034 21.6912C12.5752 21.4157 10.2967 19.992 7.59098 17.4384C4.65337 14.6592 1.85974 10.9651 1.85974 7.6272C1.85974 7.37472 1.88218 7.17312 1.91771 7.00224L1.93266 6.95712V6.91296C2.28047 4.0896 4.58044 1.90656 7.4311 1.90656Z" fill="#171819"/>
</svg>
