<svg width="24" height="24" viewBox="0 0 24 24" fill="none" xmlns="http://www.w3.org/2000/svg">
<path fill-rule="evenodd" clip-rule="evenodd" d="M11.9992 1.78668C9.60499 1.78668 7.66411 3.6265 7.66411 5.89604C7.66411 8.16558 9.60499 10.0054 11.9992 10.0054C14.3934 10.0054 16.3343 8.16558 16.3343 5.89604C16.3343 3.6265 14.3934 1.78668 11.9992 1.78668ZM5.7793 5.89604C5.7793 2.63975 8.56404 0 11.9992 0C15.4344 0 18.2191 2.63975 18.2191 5.89604C18.2191 9.15233 15.4344 11.7921 11.9992 11.7921C8.56404 11.7921 5.7793 9.15233 5.7793 5.89604Z" fill="#171819"/>
<path fill-rule="evenodd" clip-rule="evenodd" d="M0 23.9999C0 18.2437 4.92237 13.5776 10.9948 13.5776H13.0052C19.0776 13.5776 24 18.2437 24 23.9999H22.1152C22.1152 19.2305 18.0366 15.3643 13.0052 15.3643H10.9948C5.96332 15.3643 1.88482 19.2305 1.88482 23.9999H0Z" fill="#171819"/>
</svg>
