<svg width="24" height="24" viewBox="0 0 24 24" fill="none" xmlns="http://www.w3.org/2000/svg">
<path d="M23.7195 22.3066L17.7554 16.3425C19.3807 14.3548 20.1798 11.8184 19.9874 9.25795C19.795 6.69753 18.6259 4.30899 16.7219 2.5864C14.8177 0.863808 12.3245 -0.0610489 9.75761 0.00313001C7.19078 0.067309 4.7468 1.11561 2.93121 2.93121C1.11562 4.7468 0.067309 7.19078 0.00313002 9.75762C-0.0610489 12.3244 0.863807 14.8178 2.5864 16.7218C4.30899 18.6258 6.69752 19.795 9.25794 19.9874C11.8184 20.1798 14.3548 19.3806 16.3426 17.7554L22.3067 23.7195C22.4951 23.9015 22.7475 24.0022 23.0095 23.9999C23.2715 23.9976 23.5221 23.8926 23.7073 23.7073C23.8926 23.522 23.9977 23.2714 24 23.0094C24.0022 22.7475 23.9014 22.4951 23.7195 22.3066ZM10.0238 18.0171C8.4428 18.0171 6.89736 17.5483 5.58285 16.6701C4.26834 15.7917 3.24381 14.5433 2.6388 13.0827C2.03379 11.6221 1.8755 10.0149 2.18393 8.46431C2.49235 6.91375 3.25366 5.48945 4.37156 4.37155C5.48946 3.25365 6.91374 2.49236 8.46432 2.18392C10.0149 1.8755 11.6221 2.0338 13.0827 2.6388C14.5434 3.2438 15.7917 4.26834 16.67 5.58285C17.5484 6.89736 18.0172 8.44281 18.0172 10.0237C18.0148 12.143 17.1719 14.1748 15.6733 15.6733C14.1748 17.1718 12.143 18.0147 10.0238 18.0171Z" fill="#171819"/>
</svg>
