<svg width="30" height="30" viewBox="0 0 30 30" fill="none" xmlns="http://www.w3.org/2000/svg">
<path d="M15.0033 7.30839C10.7468 7.30839 7.31342 10.7425 7.31342 15C7.31342 19.2575 10.7468 22.6917 15.0033 22.6917C19.2599 22.6917 22.6933 19.2575 22.6933 15C22.6933 10.7425 19.2599 7.30839 15.0033 7.30839ZM15.0033 20.0005C12.2526 20.0005 10.0039 17.758 10.0039 15C10.0039 12.242 12.2459 9.99946 15.0033 9.99946C17.7607 9.99946 20.0027 12.242 20.0027 15C20.0027 17.758 17.754 20.0005 15.0033 20.0005ZM24.8013 6.99375C24.8013 7.9912 23.9982 8.7878 23.0077 8.7878C22.0105 8.7878 21.2141 7.98449 21.2141 6.99375C21.2141 6.00301 22.0172 5.19971 23.0077 5.19971C23.9982 5.19971 24.8013 6.00301 24.8013 6.99375ZM29.8946 8.81457C29.7807 6.41137 29.232 4.28261 27.4718 2.52874C25.7184 0.774856 23.59 0.225932 21.1874 0.105437C18.7111 -0.0351456 11.2889 -0.0351456 8.81258 0.105437C6.4166 0.219227 4.28833 0.768151 2.52817 2.52203C0.767984 4.27591 0.225877 6.40466 0.10541 8.80789C-0.0351366 11.2847 -0.0351366 18.7086 0.10541 21.1855C0.219185 23.5886 0.767984 25.7174 2.52817 27.4712C4.28833 29.2252 6.40992 29.774 8.81258 29.8946C11.2889 30.0351 18.7111 30.0351 21.1874 29.8946C23.59 29.7809 25.7184 29.2318 27.4718 27.4712C29.2254 25.7174 29.7741 23.5886 29.8946 21.1855C30.0351 18.7086 30.0351 11.2914 29.8946 8.81457ZM26.6954 23.8431C26.1735 25.1551 25.1629 26.166 23.8444 26.6947C21.8701 27.4781 17.1851 27.2973 15.0033 27.2973C12.8215 27.2973 8.12993 27.4712 6.16228 26.6947C4.85051 26.1726 3.83993 25.1618 3.3112 23.8431C2.52817 21.8682 2.70886 17.1823 2.70886 15C2.70886 12.8177 2.53485 8.12508 3.3112 6.15699C3.83323 4.84493 4.84383 3.83409 6.16228 3.30526C8.13663 2.52203 12.8215 2.70278 15.0033 2.70278C17.1851 2.70278 21.8767 2.52874 23.8444 3.30526C25.1562 3.82741 26.1666 4.83822 26.6954 6.15699C27.4784 8.13177 27.2979 12.8177 27.2979 15C27.2979 17.1823 27.4784 21.8749 26.6954 23.8431Z" fill="#171819"/>
</svg>
