<svg width="107" height="30" viewBox="0 0 107 30" fill="none" xmlns="http://www.w3.org/2000/svg">
<path d="M0.613711 29V0.599998H3.41371V26.52H19.8137V29H0.613711ZM34.2412 29.2C32.2412 29.2 30.4279 28.8 28.8012 28C27.1745 27.2 25.7745 26.12 24.6012 24.76C23.4279 23.3733 22.5212 21.8267 21.8812 20.12C21.2412 18.3867 20.9212 16.6133 20.9212 14.8C20.9212 12.9067 21.2545 11.1067 21.9212 9.4C22.5879 7.66667 23.5212 6.13333 24.7212 4.8C25.9479 3.44 27.3745 2.37333 29.0012 1.6C30.6279 0.799998 32.3879 0.399999 34.2812 0.399999C36.2812 0.399999 38.0945 0.813332 39.7212 1.64C41.3479 2.46666 42.7345 3.57333 43.8812 4.96C45.0545 6.34667 45.9612 7.89333 46.6012 9.6C47.2412 11.3067 47.5612 13.0533 47.5612 14.84C47.5612 16.7333 47.2279 18.5467 46.5612 20.28C45.8945 21.9867 44.9612 23.52 43.7612 24.88C42.5612 26.2133 41.1479 27.2667 39.5212 28.04C37.8945 28.8133 36.1345 29.2 34.2412 29.2ZM23.7212 14.8C23.7212 16.3467 23.9745 17.84 24.4812 19.28C24.9879 20.6933 25.7079 21.96 26.6412 23.08C27.5745 24.1733 28.6812 25.0533 29.9612 25.72C31.2679 26.36 32.6945 26.68 34.2412 26.68C35.8679 26.68 37.3212 26.3467 38.6012 25.68C39.9079 24.9867 41.0145 24.08 41.9212 22.96C42.8545 21.8133 43.5612 20.5333 44.0412 19.12C44.5212 17.7067 44.7612 16.2667 44.7612 14.8C44.7612 13.2533 44.5079 11.7733 44.0012 10.36C43.4945 8.94666 42.7612 7.68 41.8012 6.56C40.8679 5.44 39.7612 4.56 38.4812 3.92C37.2012 3.28 35.7879 2.96 34.2412 2.96C32.6412 2.96 31.1879 3.29333 29.8812 3.96C28.6012 4.62667 27.4945 5.53333 26.5612 6.68C25.6545 7.8 24.9479 9.06667 24.4412 10.48C23.9612 11.8933 23.7212 13.3333 23.7212 14.8ZM64.2403 29.2C62.3469 29.2 60.5869 28.8 58.9603 28C57.3336 27.1733 55.9203 26.0667 54.7203 24.68C53.5203 23.2933 52.5869 21.7467 51.9203 20.04C51.2803 18.3333 50.9603 16.5733 50.9603 14.76C50.9603 12.84 51.2803 11.0267 51.9203 9.32C52.5869 7.58667 53.5069 6.05333 54.6803 4.72C55.8536 3.38667 57.2403 2.33333 58.8403 1.56C60.4403 0.786665 62.1869 0.399999 64.0803 0.399999C66.8803 0.399999 69.1603 0.973332 70.9203 2.12C72.6803 3.26667 74.0136 4.76 74.9203 6.6L72.7603 8.04C71.8536 6.28 70.6403 4.98667 69.1203 4.16C67.6003 3.33333 65.9069 2.92 64.0403 2.92C62.4669 2.92 61.0403 3.25333 59.7603 3.92C58.5069 4.58666 57.4269 5.48 56.5203 6.6C55.6136 7.72 54.9203 8.98667 54.4403 10.4C53.9869 11.8133 53.7603 13.28 53.7603 14.8C53.7603 16.4 54.0269 17.92 54.5603 19.36C55.0936 20.7733 55.8536 22.04 56.8403 23.16C57.8269 24.2533 58.9603 25.12 60.2403 25.76C61.5469 26.3733 62.9469 26.68 64.4403 26.68C66.1736 26.68 67.8136 26.2533 69.3603 25.4C70.9069 24.52 72.3869 23.1733 73.8003 21.36V24.32C71.1069 27.5733 67.9203 29.2 64.2403 29.2ZM73.3603 17.2H67.0403V15.04H75.7203V29H73.3603V17.2ZM92.9131 29.2C90.9131 29.2 89.0998 28.8 87.4731 28C85.8464 27.2 84.4464 26.12 83.2731 24.76C82.0998 23.3733 81.1931 21.8267 80.5531 20.12C79.9131 18.3867 79.5931 16.6133 79.5931 14.8C79.5931 12.9067 79.9264 11.1067 80.5931 9.4C81.2598 7.66667 82.1931 6.13333 83.3931 4.8C84.6198 3.44 86.0464 2.37333 87.6731 1.6C89.2998 0.799998 91.0598 0.399999 92.9531 0.399999C94.9531 0.399999 96.7664 0.813332 98.3931 1.64C100.02 2.46666 101.406 3.57333 102.553 4.96C103.726 6.34667 104.633 7.89333 105.273 9.6C105.913 11.3067 106.233 13.0533 106.233 14.84C106.233 16.7333 105.9 18.5467 105.233 20.28C104.566 21.9867 103.633 23.52 102.433 24.88C101.233 26.2133 99.8198 27.2667 98.1931 28.04C96.5664 28.8133 94.8064 29.2 92.9131 29.2ZM82.3931 14.8C82.3931 16.3467 82.6464 17.84 83.1531 19.28C83.6598 20.6933 84.3798 21.96 85.3131 23.08C86.2464 24.1733 87.3531 25.0533 88.6331 25.72C89.9398 26.36 91.3664 26.68 92.9131 26.68C94.5398 26.68 95.9931 26.3467 97.2731 25.68C98.5798 24.9867 99.6864 24.08 100.593 22.96C101.526 21.8133 102.233 20.5333 102.713 19.12C103.193 17.7067 103.433 16.2667 103.433 14.8C103.433 13.2533 103.18 11.7733 102.673 10.36C102.166 8.94666 101.433 7.68 100.473 6.56C99.5398 5.44 98.4331 4.56 97.1531 3.92C95.8731 3.28 94.4598 2.96 92.9131 2.96C91.3131 2.96 89.8598 3.29333 88.5531 3.96C87.2731 4.62667 86.1664 5.53333 85.2331 6.68C84.3264 7.8 83.6198 9.06667 83.1131 10.48C82.6331 11.8933 82.3931 13.3333 82.3931 14.8Z" fill="#171819"/>
</svg>
