<svg width="33" height="20" viewBox="0 0 33 20" fill="none" xmlns="http://www.w3.org/2000/svg">
<path d="M32.6816 16.1966V15.8083H32.5785L32.4593 16.0748L32.3406 15.8083H32.2372V16.1966H32.3104V15.9041L32.422 16.1565H32.4979L32.6094 15.9035V16.1966H32.682H32.6816ZM32.0275 16.1966V15.8748H32.1595V15.8093H31.8223V15.8748H31.9542V16.1966H32.0268H32.0275Z" fill="#F79410"/>
<path d="M20.9622 17.8615H12.0391V2.1377H20.9623L20.9622 17.8615Z" fill="#FF5F00"/>
<path d="M12.6045 10C12.6045 6.81043 14.1276 3.96914 16.4993 2.13809C14.704 0.750042 12.4835 -0.00330147 10.1972 1.08764e-05C4.56532 1.08764e-05 0 4.47709 0 10C0 15.5229 4.56532 20 10.1972 20C12.4836 20.0033 14.7041 19.25 16.4995 17.8619C14.1279 16.0312 12.6045 13.1897 12.6045 10Z" fill="#EB001B"/>
<path d="M33.0003 10C33.0003 15.5229 28.435 20 22.8031 20C20.5165 20.0033 18.2957 19.25 16.5 17.8619C18.8724 16.0309 20.3955 13.1897 20.3955 10C20.3955 6.81027 18.8724 3.96914 16.5 2.13809C18.2956 0.750083 20.5164 -0.00324341 22.8029 1.0497e-05C28.4348 1.0497e-05 33.0001 4.47709 33.0001 10" fill="#F79E1B"/>
</svg>
