<svg width="30" height="30" viewBox="0 0 30 30" fill="none" xmlns="http://www.w3.org/2000/svg">
<path d="M15.758 0.0253125C17.641 0 19.5133 0.015 21.3833 0C21.4966 1.91344 22.2887 3.8625 23.9009 5.21531C25.5098 6.60188 27.7857 7.23656 30 7.45125V12.4847C27.9249 12.4256 25.84 12.0506 23.957 11.2744C23.1369 10.9519 22.3729 10.5366 21.6251 10.1119C21.6153 13.7644 21.6423 17.4122 21.5981 21.0497C21.4859 22.7972 20.8222 24.5363 19.6525 25.9763C17.7705 28.3734 14.504 29.9362 11.1491 29.985C9.09125 30.0872 7.03555 29.5997 5.28201 28.7016C2.37598 27.2128 0.331071 24.4875 0.0332375 21.5625C-0.00427776 20.943 -0.0100387 20.3224 0.0159718 19.7025C0.274957 17.3241 1.62924 15.0488 3.73133 13.5009C6.114 11.6981 9.45167 10.8394 12.5768 11.3475C12.6059 13.1991 12.5206 15.0488 12.5206 16.9003C11.093 16.4991 9.42469 16.6116 8.17725 17.3644C7.26459 17.8867 6.57488 18.6552 6.21435 19.5516C5.91652 20.1853 6.00177 20.8894 6.01904 21.5625C6.36111 23.6137 8.63155 25.3378 11.0552 25.1512C12.662 25.1362 14.2019 24.3263 15.0393 23.1403C15.3101 22.725 15.6134 22.3003 15.6296 21.8119C15.7709 19.5759 15.7148 17.3494 15.7321 15.1134C15.7439 10.0744 15.7148 5.04937 15.759 0.02625L15.758 0.0253125Z" fill="#171819"/>
</svg>
